<svg xmlns="http://www.w3.org/2000/svg" viewBox="0 0 512 512" id="money-chat-group"><path fill="#b0c4ef" d="m326.1 157.9-11.2-41.1c-3.2-11.6-13.6-19.6-25.4-19.6h-17.1v-12c12.2-6 20.6-18.6 20.6-33.1 0-20.4-16.5-36.9-36.9-36.9s-36.9 16.5-36.9 36.9c0 14.5 8.4 27 20.6 33.1v11.9h-17.1c-11.9 0-22.3 8-25.4 19.6l-11.2 41.1c-.7 2.5 1.4 4.8 4.2 4.8h131.8c2.6.1 4.7-2.3 4-4.7zm-191 270c-3.2-11.6-13.6-19.6-25.4-19.6H92.6v-11.9c12.2-6 20.6-18.6 20.6-33.1 0-20.4-16.5-36.9-36.9-36.9s-36.9 16.5-36.9 36.9c0 14.5 8.4 27 20.6 33.1v11.9H42.8c-11.9 0-22.3 8-25.4 19.6L6.1 469c-.7 2.5 1.4 4.8 4.2 4.8h131.8c2.8 0 4.9-2.4 4.2-4.8l-11.2-41.1zM505.9 469l-11.2-41.1c-3.2-11.6-13.6-19.6-25.4-19.6h-17.1v-11.9c12.2-6 20.6-18.6 20.6-33.1 0-20.4-16.5-36.9-36.9-36.9S399 342.9 399 363.3c0 14.5 8.4 27 20.6 33.1v11.9h-17.1c-11.9 0-22.3 8-25.4 19.6L365.7 469c-.7 2.5 1.4 4.8 4.2 4.8h131.8c2.8 0 4.8-2.4 4.2-4.8z"></path><path fill="#b0c4ef" fill-rule="evenodd" d="M159.8 138.4c-5.9 3.4-8 11-4.5 17 3.4 5.9 11 8 17 4.5 5.9-3.4 8-11 4.5-17-3.5-5.9-11.1-8-17-4.5zM120 168.9c-4.9 4.9-4.9 12.7 0 17.6 4.9 4.9 12.7 4.9 17.6 0 4.9-4.9 4.9-12.7 0-17.6-4.9-4.9-12.7-4.9-17.6 0zm-13.5 35.2c-5.9-3.4-13.5-1.4-17 4.5-3.4 5.9-1.4 13.5 4.5 17 5.9 3.4 13.5 1.4 17-4.5 3.4-6 1.4-13.6-4.5-17zm-27.4 66.1c6.6 1.8 13.4-2.2 15.2-8.8 1.8-6.6-2.2-13.4-8.8-15.2-6.6-1.8-13.4 2.2-15.2 8.8-1.8 6.6 2.2 13.4 8.8 15.2z" clip-rule="evenodd"></path><circle cx="76.2" cy="304.7" r="12.4" fill="#b0c4ef" fill-rule="evenodd" clip-rule="evenodd"></circle><path fill="#b0c4ef" fill-rule="evenodd" d="M172.2 449.5c-5.9-3.4-13.5-1.4-17 4.5-3.4 5.9-1.4 13.5 4.5 17 5.9 3.4 13.5 1.4 17-4.5 3.5-6 1.5-13.6-4.5-17zm40.3 16.7c-6.6-1.8-13.4 2.2-15.2 8.8s2.2 13.4 8.8 15.2 13.4-2.2 15.2-8.8c1.8-6.6-2.1-13.4-8.8-15.2zm43.3 5.7c-6.9 0-12.4 5.6-12.4 12.4 0 6.9 5.6 12.4 12.4 12.4 6.9 0 12.4-5.6 12.4-12.4 0-6.8-5.5-12.4-12.4-12.4zm43.3-5.7c-6.6 1.8-10.6 8.6-8.8 15.2 1.8 6.6 8.6 10.6 15.2 8.8s10.6-8.6 8.8-15.2c-1.8-6.6-8.6-10.6-15.2-8.8zm40.3-16.7c-5.9 3.4-8 11-4.5 17 3.4 5.9 11 8 17 4.5s8-11 4.5-17c-3.4-5.9-11-7.9-17-4.5z" clip-rule="evenodd"></path><circle cx="435.5" cy="304.7" r="12.4" fill="#b0c4ef" fill-rule="evenodd" clip-rule="evenodd"></circle><path fill="#b0c4ef" fill-rule="evenodd" d="M417.3 261.4c1.8 6.6 8.6 10.6 15.2 8.8 6.6-1.8 10.6-8.6 8.8-15.2-1.8-6.6-8.6-10.6-15.2-8.8-6.6 1.8-10.5 8.6-8.8 15.2zm.3-35.8c5.9-3.4 8-11 4.5-17-3.4-5.9-11-8-17-4.5-5.9 3.4-8 11-4.5 17 3.5 5.9 11.1 8 17 4.5z" clip-rule="evenodd"></path><circle cx="382.9" cy="177.7" r="12.4" fill="#b0c4ef" fill-rule="evenodd" clip-rule="evenodd"></circle><path fill="#b0c4ef" fill-rule="evenodd" d="M351.9 138.4c-5.9-3.4-13.5-1.4-17 4.5-3.4 5.9-1.4 13.5 4.5 17s13.5 1.4 17-4.5c3.4-6 1.4-13.6-4.5-17z" clip-rule="evenodd"></path><path fill="#004ce5" d="M381.2 371.4c-12.7-11-20.6-32.3-24.8-46.5 1.9-7.9 3-16 3-24.5 0-57.1-46.3-103.5-103.5-103.5-57.1 0-103.5 46.3-103.5 103.5 0 8.4 1.1 16.6 3 24.5-4.1 14.2-12.1 35.5-24.8 46.5-3 2.6-1.7 7.4 2.2 7.8 10.4 1.1 27.6 1 50.4-5.2 18.7 18.4 44.3 29.8 72.6 29.8s53.9-11.4 72.6-29.8c22.8 6.1 40 6.2 50.4 5.2 4.1-.4 5.3-5.2 2.4-7.8zm-113.6-11.5v14.8h-22V360c-21.3-3.2-33.5-16.2-34.9-34h26.1c2.1 9.5 9.4 15.5 20.4 15.5 13.6 0 18-6.5 18-13.9 0-9-4.8-13.4-21.8-18.3-31.1-8.9-40.1-20.4-40.1-37.7 0-18.6 13.7-30.2 31.1-33.5v-12h21.9v11.8c22.9 3.5 31 17.6 32.4 31.9h-26.1c-1.3-5.1-3.7-13.4-17.8-13.4-11.8 0-15.2 7-15.2 12.6 0 8 4.4 11.6 24 17.2 27.5 7.7 37.8 18.8 37.8 38.4-.1 20.7-13.6 32.3-33.8 35.3z"></path></svg>